<svg xmlns="http://www.w3.org/2000/svg" width="15" height="10.091" viewBox="0 0 15 10.091">
  <g id="confirm" transform="translate(0 -80.506)">
    <g id="Group_1661" data-name="Group 1661" transform="translate(0 80.506)">
      <path id="Path_1556" data-name="Path 1556" d="M14.76,81.237l-.491-.491a.822.822,0,0,0-1.16,0l-6.9,6.9L1.891,83.336a.822.822,0,0,0-1.16,0l-.491.491a.823.823,0,0,0,0,1.16l4.87,4.87a.185.185,0,0,0,.021.025l.491.483A.81.81,0,0,0,6.2,90.6h0a.808.808,0,0,0,.58-.231l.492-.488a.124.124,0,0,0,.019-.021L14.76,82.4A.819.819,0,0,0,14.76,81.237Z" transform="translate(0 -80.506)" fill="#1fac9c"/>
    </g>
  </g>
</svg>
