<svg xmlns="http://www.w3.org/2000/svg" width="12" height="12" viewBox="0 0 12 12">
  <g id="edit" transform="translate(0 -0.004)">
    <g id="Group_1673" data-name="Group 1673" transform="translate(0 0.861)">
      <g id="Group_1672" data-name="Group 1672">
        <path id="Path_1583" data-name="Path 1583" d="M9.857,39.28a.429.429,0,0,0-.429.429v4.286A.429.429,0,0,1,9,44.423H1.286a.429.429,0,0,1-.429-.429V35.423a.429.429,0,0,1,.429-.429H6.428a.429.429,0,1,0,0-.857H1.286A1.286,1.286,0,0,0,0,35.423v8.571A1.286,1.286,0,0,0,1.286,45.28H9a1.286,1.286,0,0,0,1.286-1.286V39.708A.429.429,0,0,0,9.857,39.28Z" transform="translate(0 -34.137)" fill="#2196f3"/>
      </g>
    </g>
    <g id="Group_1675" data-name="Group 1675" transform="translate(2.572 0.004)">
      <g id="Group_1674" data-name="Group 1674" transform="translate(0 0)">
        <path id="Path_1584" data-name="Path 1584" d="M111.357.484a1.64,1.64,0,0,0-2.32,0l-5.645,5.645a.433.433,0,0,0-.1.168l-.857,2.571a.429.429,0,0,0,.406.564.435.435,0,0,0,.135-.022l2.571-.857a.429.429,0,0,0,.168-.1L111.356,2.8A1.641,1.641,0,0,0,111.357.484Z" transform="translate(-102.409 -0.004)" fill="#2196f3"/>
      </g>
    </g>
  </g>
</svg>
