<svg xmlns="http://www.w3.org/2000/svg" width="15" height="15" viewBox="0 0 15 15">
  <path id="refuse" d="M14.827,11.021l-1.49,1.49L14.827,14a.586.586,0,0,1-.829.829l-1.49-1.49-1.49,1.49A.586.586,0,0,1,10.19,14l1.49-1.49-1.49-1.49a.586.586,0,0,1,.829-.829l1.49,1.49L14,10.192a.586.586,0,0,1,.829.829ZM8.661,12.578a6.976,6.976,0,0,1-1.162.08,6.81,6.81,0,0,1-2.688-.543.586.586,0,0,0-.466,0L1.669,13.3l.919-2.273a.586.586,0,0,0-.1-.6A5.356,5.356,0,0,1,1.17,6.915c0-3.166,2.839-5.742,6.328-5.742s6.328,2.576,6.328,5.742a5.237,5.237,0,0,1-.13,1.239.586.586,0,1,0,1.139.276A6.382,6.382,0,0,0,15,6.915a6.609,6.609,0,0,0-2.215-4.907A7.789,7.789,0,0,0,7.5,0,7.788,7.788,0,0,0,2.214,2.008,6.609,6.609,0,0,0,0,6.915,6.479,6.479,0,0,0,1.372,10.9L.041,14.2a.586.586,0,0,0,.78.756L4.59,13.29a7.99,7.99,0,0,0,2.908.539,8.109,8.109,0,0,0,1.357-.1.586.586,0,1,0-.195-1.156Zm0,0" transform="translate(0.001 -0.001)" fill="#9f4343"/>
</svg>
